<?xml version="1.0" encoding="UTF-8"?>
<svg xmlns="http://www.w3.org/2000/svg" width="822" height="834" viewBox="0 0 822 834" role="img" aria-label="Wheel icon">
  <defs>
    <linearGradient id="blueGradient" x1="0" y1="0" x2="0" y2="1">
      <stop offset="0%" stop-color="#1c4b72"/>
      <stop offset="52%" stop-color="#0b3154"/>
      <stop offset="100%" stop-color="#020a24"/>
    </linearGradient>
    <clipPath id="roundedCrop">
      <rect x="0" y="0" width="822" height="834" rx="126" ry="126"/>
    </clipPath>
  </defs>
  <g clip-path="url(#roundedCrop)">
    <rect x="0" y="0" width="822" height="834" rx="126" ry="126" fill="url(#blueGradient)"/>
    <path d="M397 97 L396 98 L384 98 L383 99 L366 100 L365 101 L354 102 L353 103 L344 104 L335 107 L331 107 L303 116 L281 126 L279 126 L251 141 L231 154 L215 166 L188 190 L173 206 L151 234 L135 259 L128 274 L126 276 L126 278 L118 293 L116 300 L113 305 L105 329 L104 336 L102 340 L100 352 L98 357 L98 361 L97 362 L97 366 L96 367 L96 372 L95 373 L94 389 L93 390 L93 400 L92 401 L92 445 L93 446 L95 472 L96 473 L96 478 L97 479 L97 484 L100 493 L100 497 L104 509 L104 512 L106 516 L106 519 L110 528 L112 536 L118 549 L118 551 L132 579 L151 609 L174 638 L202 666 L233 690 L236 691 L249 700 L254 702 L259 706 L290 721 L292 721 L300 725 L303 725 L314 730 L317 730 L324 733 L327 733 L339 737 L343 737 L347 739 L358 740 L364 742 L371 742 L372 743 L379 743 L380 744 L391 744 L392 745 L434 745 L435 744 L447 744 L448 743 L455 743 L456 742 L462 742 L463 741 L478 739 L479 738 L498 734 L505 731 L508 731 L520 727 L523 725 L528 724 L538 719 L540 719 L573 702 L606 680 L617 670 L622 667 L637 653 L654 635 L657 630 L672 612 L692 581 L699 566 L701 564 L701 562 L707 551 L707 549 L714 534 L720 516 L722 506 L724 502 L724 499 L727 490 L727 486 L728 485 L730 467 L731 466 L731 458 L732 457 L732 450 L733 449 L733 427 L734 426 L734 419 L733 418 L733 398 L732 397 L732 389 L731 388 L729 367 L728 366 L728 362 L724 348 L723 340 L711 303 L697 272 L695 270 L684 249 L669 227 L640 193 L621 175 L597 156 L576 142 L548 127 L546 127 L539 123 L537 123 L532 120 L522 117 L519 115 L507 111 L504 111 L500 109 L497 109 L493 107 L485 106 L476 103 L460 101 L459 100 L443 99 L442 98 L429 98 L428 97 Z M412 581 L414 582 L415 590 L416 591 L416 596 L417 597 L419 612 L420 613 L420 617 L421 618 L421 622 L422 623 L422 627 L424 633 L424 638 L425 639 L425 643 L426 644 L426 648 L428 654 L428 659 L430 664 L430 668 L431 669 L431 673 L433 679 L433 684 L434 685 L434 689 L435 690 L435 694 L436 695 L436 699 L437 700 L437 704 L438 705 L438 709 L440 715 L439 718 L434 718 L433 719 L392 719 L385 717 L387 710 L387 706 L388 705 L388 701 L390 696 L390 690 L391 689 L391 685 L392 684 L392 680 L393 679 L393 675 L394 674 L394 670 L395 669 L395 665 L396 664 L396 660 L398 654 L398 649 L399 648 L401 634 L403 629 L405 613 L406 612 L406 608 L407 607 L407 603 L409 597 L409 592 L410 591 L410 587 Z M482 562 L485 564 L567 671 L567 674 L553 683 L524 697 L521 697 L519 694 L519 691 L516 684 L516 681 L513 674 L513 671 L511 667 L511 664 L509 660 L505 643 L499 626 L499 623 L497 619 L496 612 L491 598 L487 581 L481 564 Z M343 562 L344 563 L343 568 L341 571 L341 574 L338 581 L336 592 L329 613 L329 616 L326 623 L326 626 L324 630 L324 633 L322 637 L318 654 L315 661 L313 671 L310 678 L306 695 L304 697 L302 697 L276 685 L274 683 L259 675 L258 672 L299 617 L311 603 L329 578 L334 573 L340 564 Z M429 493 L432 495 L434 499 L466 540 L470 547 L471 553 L474 560 L475 567 L482 588 L485 602 L488 609 L490 619 L494 629 L497 643 L499 647 L499 650 L502 657 L502 660 L508 678 L508 681 L510 684 L510 687 L514 698 L514 700 L509 703 L506 703 L493 708 L490 708 L486 710 L482 710 L478 712 L474 712 L469 714 L453 716 L452 717 L447 717 L446 716 L445 706 L444 705 L443 696 L441 690 L441 685 L440 684 L440 680 L439 679 L439 675 L438 674 L438 670 L437 669 L437 665 L436 664 L436 660 L435 659 L435 655 L434 654 L434 650 L433 649 L433 645 L432 644 L432 640 L431 639 L431 635 L429 629 L429 624 L427 619 L425 603 L424 602 L424 598 L423 597 L423 593 L421 587 L421 582 L420 581 L420 577 L418 571 L418 566 L416 560 L418 547 L420 542 L422 527 L423 526 L423 522 L424 521 L427 499 Z M396 493 L398 498 L398 503 L400 509 L400 514 L402 520 L402 525 L404 531 L404 536 L405 537 L409 561 L408 562 L407 572 L404 582 L404 587 L403 588 L401 603 L400 604 L400 608 L398 614 L398 619 L397 620 L397 624 L396 625 L396 629 L395 630 L395 634 L394 635 L394 639 L393 640 L393 644 L392 645 L392 649 L391 650 L391 654 L389 660 L388 670 L386 675 L386 680 L384 686 L384 691 L383 692 L379 716 L378 717 L373 717 L372 716 L361 715 L360 714 L356 714 L355 713 L332 708 L312 701 L311 699 L316 685 L316 682 L318 678 L322 661 L325 654 L325 651 L328 644 L331 630 L333 627 L336 613 L344 589 L344 585 L347 578 L347 575 L349 571 L349 568 L351 564 L355 547 L358 541 L365 533 L376 517 L381 512 L393 495 Z M550 493 L552 492 L556 494 L559 494 L569 498 L572 498 L602 508 L612 510 L628 516 L638 518 L664 527 L683 532 L684 533 L684 537 L672 562 L661 580 L659 581 L605 538 L600 533 L596 531 L581 518 L566 507 L561 502 L553 497 Z M275 493 L273 496 L244 518 L238 524 L224 534 L219 539 L184 566 L166 581 L164 580 L163 577 L156 567 L153 560 L151 558 L149 552 L143 541 L143 539 L141 536 L141 533 L142 532 L151 530 L155 528 L158 528 L168 524 L171 524 L187 518 L197 516 L210 511 L213 511 L227 506 L230 506 L266 494 L269 494 L273 492 Z M403 485 L407 485 L408 486 L422 485 L423 486 L423 490 L422 491 L422 495 L421 496 L421 500 L419 506 L419 511 L417 516 L416 527 L415 528 L415 532 L413 538 L411 537 L409 521 L407 516 L407 511 L406 510 L404 495 L402 489 L402 486 Z M446 475 L448 475 L450 478 L454 495 L462 519 L461 521 L460 521 L454 514 L432 484 L433 482 L439 480 Z M378 474 L381 477 L392 482 L393 484 L387 493 L376 506 L374 510 L370 514 L367 519 L365 520 L364 517 L366 513 L367 506 L373 489 L376 475 Z M459 464 L474 469 L477 469 L484 472 L487 472 L500 477 L503 477 L506 479 L519 482 L529 486 L656 587 L646 602 L630 621 L606 645 L577 668 L574 669 L567 661 L556 645 L536 620 L534 616 L526 607 L520 598 L512 589 L474 539 L470 522 L466 512 L461 491 L459 488 L459 485 L454 470 Z M366 464 L371 469 L371 471 L350 541 L341 551 L333 563 L266 649 L255 665 L250 669 L226 651 L194 620 L180 603 L170 589 L170 587 L215 550 L229 540 L264 511 L298 485 Z M470 443 L473 442 L482 450 L506 468 L507 470 L506 471 L503 471 L499 469 L496 469 L480 463 L477 463 L465 459 L464 456 L469 447 Z M355 443 L356 447 L361 456 L360 459 L356 461 L339 465 L322 471 L319 471 L318 470 L320 467 L338 454 L352 442 Z M481 439 L482 438 L493 437 L498 435 L502 435 L503 434 L507 434 L513 432 L518 432 L524 430 L529 430 L530 429 L534 429 L540 427 L551 427 L552 428 L556 428 L557 429 L561 429 L562 430 L566 430 L567 431 L571 431 L577 433 L582 433 L583 434 L597 436 L602 438 L625 442 L634 445 L639 445 L644 447 L653 448 L654 449 L671 452 L676 454 L680 454 L681 455 L685 455 L686 456 L703 459 L704 460 L704 467 L703 468 L703 473 L702 474 L700 488 L699 489 L696 504 L689 525 L688 526 L683 526 L664 519 L661 519 L638 511 L635 511 L625 507 L622 507 L616 504 L599 500 L586 495 L576 493 L560 487 L553 486 L543 482 L540 482 L531 479 L496 451 L483 442 Z M344 439 L342 442 L333 448 L294 479 L272 486 L269 486 L262 489 L259 489 L253 492 L236 496 L226 500 L223 500 L213 504 L210 504 L197 509 L187 511 L174 516 L161 519 L141 526 L138 526 L135 522 L135 519 L130 507 L130 504 L125 487 L123 473 L122 472 L121 461 L123 459 L131 458 L135 456 L140 456 L150 453 L154 453 L155 452 L172 449 L177 447 L181 447 L186 445 L200 443 L205 441 L219 439 L224 437 L238 435 L243 433 L248 433 L258 430 L263 430 L268 428 L278 427 L279 426 L296 429 L297 430 L312 432 L313 433 L318 433 L319 434 L323 434 L328 436 L333 436 L334 437 L338 437 Z M473 433 L473 414 L474 413 L489 415 L490 416 L495 416 L501 418 L506 418 L507 419 L522 421 L523 422 L522 424 L519 425 L515 425 L514 426 L505 427 L500 429 L495 429 L494 430 L480 432 L475 434 Z M352 433 L350 434 L341 431 L336 431 L335 430 L321 428 L316 426 L306 425 L304 422 L309 420 L314 420 L315 419 L319 419 L325 417 L330 417 L336 415 L351 413 L352 414 Z M706 450 L704 453 L702 453 L689 449 L666 445 L665 444 L648 441 L643 439 L639 439 L638 438 L629 437 L624 435 L610 433 L605 431 L596 430 L591 428 L577 426 L576 425 L569 424 L568 422 L569 421 L574 421 L579 419 L584 419 L585 418 L595 417 L601 415 L606 415 L607 414 L611 414 L617 412 L622 412 L623 411 L627 411 L628 410 L632 410 L638 408 L643 408 L644 407 L648 407 L649 406 L653 406 L654 405 L658 405 L659 404 L663 404 L664 403 L668 403 L674 401 L679 401 L680 400 L684 400 L685 399 L689 399 L690 398 L694 398 L700 396 L705 396 L706 397 L706 409 L707 410 L707 439 L706 440 Z M119 449 L118 411 L119 410 L119 397 L120 396 L125 396 L126 397 L130 397 L136 399 L141 399 L146 401 L157 402 L162 404 L167 404 L172 406 L182 407 L183 408 L187 408 L188 409 L192 409 L193 410 L197 410 L203 412 L208 412 L214 414 L230 416 L235 418 L241 418 L242 419 L251 420 L256 422 L256 423 L253 425 L249 425 L248 426 L235 428 L230 430 L226 430 L225 431 L201 435 L196 437 L187 438 L182 440 L173 441 L164 444 L160 444 L159 445 L155 445 L141 449 L132 450 L123 453 L121 453 Z M408 392 L418 392 L430 397 L439 407 L443 417 L443 430 L438 442 L430 450 L418 455 L407 455 L395 450 L386 440 L382 430 L382 418 L386 407 L394 398 L401 394 Z M318 376 L319 375 L325 376 L344 383 L347 383 L354 386 L360 387 L362 390 L360 392 L355 404 L353 405 L345 398 L320 379 Z M509 375 L508 377 L504 379 L472 405 L470 404 L469 400 L463 390 L465 387 L474 385 L484 381 L487 381 L494 378 L497 378 L507 374 Z M365 327 L367 328 L369 332 L393 363 L392 366 L384 369 L379 373 L376 371 L375 365 L372 358 L372 355 L370 352 L370 349 L364 331 L364 328 Z M461 326 L462 328 L453 355 L449 372 L447 373 L443 370 L434 366 L432 363 L459 327 Z M691 326 L694 335 L694 338 L696 342 L696 345 L701 362 L701 366 L702 367 L702 372 L704 379 L704 386 L705 388 L702 390 L696 390 L695 391 L686 392 L685 393 L672 395 L671 396 L649 399 L648 400 L644 400 L643 401 L639 401 L638 402 L634 402 L628 404 L623 404 L622 405 L607 407 L606 408 L597 409 L592 411 L576 413 L575 414 L565 415 L564 416 L549 418 L548 419 L536 418 L535 417 L520 415 L514 413 L509 413 L503 411 L498 411 L497 410 L493 410 L492 409 L488 409 L482 407 L486 402 L495 396 L505 387 L530 368 L534 366 L547 363 L560 358 L570 356 L580 352 L590 350 L617 341 L624 340 L634 336 L637 336 L641 334 L658 330 L665 327 L676 325 L686 321 L688 321 Z M134 326 L136 322 L139 321 L146 324 L164 328 L174 332 L181 333 L188 336 L198 338 L205 341 L215 343 L225 347 L239 350 L255 356 L262 357 L275 362 L278 362 L285 365 L291 366 L301 372 L329 395 L343 405 L344 407 L339 409 L334 409 L333 410 L323 411 L317 413 L305 414 L304 415 L289 417 L283 419 L277 419 L276 418 L271 418 L270 417 L265 417 L264 416 L260 416 L254 414 L238 412 L237 411 L233 411 L232 410 L219 408 L218 407 L213 407 L212 406 L208 406 L202 404 L186 402 L176 399 L171 399 L165 397 L149 395 L144 393 L140 393 L139 392 L122 389 L121 388 L121 381 L122 380 L122 374 L123 373 L123 369 L125 363 L125 358 Z M412 311 L414 312 L414 315 L415 316 L417 332 L418 333 L420 348 L421 349 L421 353 L423 359 L423 362 L422 363 L419 362 L405 362 L403 363 L402 362 L405 345 L406 344 L406 338 L407 337 L407 333 L409 327 L409 322 L410 321 L411 312 Z M663 266 L672 281 L674 287 L681 300 L681 302 L686 312 L685 315 L672 318 L668 320 L665 320 L661 322 L658 322 L651 325 L634 329 L624 333 L617 334 L589 343 L586 343 L573 348 L559 351 L556 353 L553 353 L552 354 L550 353 L551 351 L574 334 L661 265 Z M162 266 L164 265 L255 337 L260 340 L265 345 L274 351 L275 353 L274 354 L269 353 L266 351 L252 348 L242 344 L239 344 L212 335 L209 335 L195 330 L192 330 L174 324 L167 323 L157 319 L140 315 L139 313 L144 302 L144 300 Z M577 175 L601 193 L627 218 L653 250 L654 253 L657 256 L657 259 L638 275 L611 295 L597 307 L583 317 L529 360 L490 373 L487 373 L468 380 L465 380 L461 382 L456 381 L454 379 L455 373 L457 369 L459 359 L462 352 L464 342 L467 335 L467 332 L470 325 L470 322 L475 307 L516 253 L520 249 L551 207 L562 194 L574 177 Z M246 176 L249 175 L252 178 L282 219 L304 246 L309 254 L313 258 L350 307 L354 319 L354 322 L357 329 L357 332 L360 339 L360 342 L363 349 L363 352 L367 362 L369 372 L371 376 L371 379 L367 383 L296 360 L209 291 L177 267 L168 259 L169 255 L175 246 L199 217 L222 195 Z M525 146 L559 163 L564 167 L567 168 L569 170 L569 173 L537 214 L525 231 L514 244 L502 261 L498 265 L493 273 L489 277 L486 282 L483 284 L482 282 L487 268 L489 257 L493 247 L493 244 L495 240 L499 223 L502 216 L504 206 L507 199 L507 196 L510 189 L513 175 L517 165 L521 148 L523 146 Z M300 146 L302 146 L305 151 L306 158 L312 175 L316 192 L319 199 L322 213 L325 220 L325 223 L328 230 L330 240 L338 264 L338 268 L342 278 L342 281 L343 282 L342 284 L339 282 L337 278 L307 240 L256 172 L257 169 L268 162 Z M451 126 L452 127 L457 127 L458 128 L463 128 L464 129 L469 129 L474 131 L478 131 L479 132 L490 134 L497 137 L500 137 L509 141 L514 142 L515 143 L515 146 L511 158 L511 161 L509 165 L509 168 L505 178 L503 188 L499 198 L498 205 L490 229 L489 236 L483 253 L483 256 L481 260 L481 263 L479 267 L479 270 L477 274 L477 277 L474 284 L473 291 L469 303 L433 351 L429 354 L427 349 L427 344 L425 339 L425 333 L424 332 L424 328 L423 327 L423 323 L422 322 L422 318 L421 317 L420 307 L418 302 L416 289 L417 288 L417 283 L418 282 L418 278 L419 277 L419 273 L420 272 L420 268 L421 267 L421 263 L422 262 L422 258 L423 257 L423 253 L425 247 L425 242 L427 237 L427 232 L428 231 L431 213 L432 212 L433 202 L434 201 L437 183 L438 182 L438 177 L439 176 L439 172 L440 171 L440 167 L441 166 L441 162 L442 161 L442 157 L443 156 L443 152 L444 151 L444 147 L445 146 L445 142 L447 136 L447 131 L448 130 L448 127 Z M375 126 L377 127 L377 130 L378 131 L378 135 L379 136 L379 140 L380 141 L380 145 L381 146 L381 150 L382 151 L382 155 L384 161 L384 166 L385 167 L385 171 L386 172 L386 176 L387 177 L387 181 L388 182 L388 186 L389 187 L389 191 L391 197 L391 202 L393 207 L394 217 L395 218 L397 231 L399 236 L401 252 L402 253 L402 257 L403 258 L403 262 L404 263 L404 267 L405 268 L405 272 L406 273 L406 277 L407 278 L407 282 L409 288 L406 306 L405 307 L405 312 L404 313 L403 322 L401 328 L401 333 L399 339 L398 350 L396 354 L392 351 L371 322 L360 309 L355 301 L351 284 L348 277 L344 260 L341 253 L339 243 L334 229 L333 222 L329 212 L326 198 L322 188 L318 171 L310 147 L310 143 L311 142 L319 140 L325 137 L328 137 L335 134 L338 134 L351 130 L367 128 L368 127 L374 127 Z M385 125 L392 125 L393 124 L432 124 L433 125 L440 125 L441 126 L441 131 L437 145 L436 156 L434 161 L433 171 L432 172 L432 176 L431 177 L431 181 L430 182 L430 186 L429 187 L429 191 L428 192 L428 196 L427 197 L427 201 L426 202 L426 206 L425 207 L425 211 L424 212 L424 216 L423 217 L423 221 L421 227 L421 232 L420 233 L420 237 L419 238 L419 242 L417 247 L417 252 L416 253 L416 257 L415 258 L415 262 L413 268 L411 267 L411 263 L410 262 L410 258 L409 257 L409 253 L408 252 L408 248 L407 247 L407 243 L406 242 L406 238 L404 232 L404 227 L402 222 L401 212 L398 202 L398 197 L397 196 L397 192 L396 191 L396 187 L395 186 L395 182 L394 181 L394 177 L393 176 L393 172 L392 171 L392 167 L391 166 L391 162 L389 156 L389 151 L388 150 L387 141 L385 136 L385 131 L384 130 L384 126 Z" fill="#f9fffd" fill-rule="evenodd"/>
  </g>
</svg>
