<?xml version="1.0" encoding="UTF-8"?>
<svg xmlns="http://www.w3.org/2000/svg" width="822" height="834" viewBox="0 0 822 834" role="img" aria-label="Wheel icon">
  <defs>
    <linearGradient id="blueGradient" x1="0" y1="0" x2="0" y2="1">
      <stop offset="0%" stop-color="#1c4b72"/>
      <stop offset="52%" stop-color="#0b3154"/>
      <stop offset="100%" stop-color="#020a24"/>
    </linearGradient>
    <clipPath id="roundedCrop">
      <rect x="0" y="0" width="822" height="834" rx="126" ry="126"/>
    </clipPath>
  </defs>
  <g clip-path="url(#roundedCrop)">
    <rect x="0" y="0" width="822" height="834" rx="126" ry="126" fill="url(#blueGradient)"/>
    <path d="M 397 93 L 396 94 L 384 94 L 383 95 L 366 96 L 365 97 L 354 98 L 353 99 L 344 100 L 335 103 L 331 103 L 303 112 L 281 122 L 279 122 L 251 137 L 231 150 L 215 162 L 188 186 L 173 202 L 151 230 L 135 255 L 128 270 L 126 272 L 126 274 L 118 289 L 116 296 L 113 301 L 105 325 L 104 332 L 102 336 L 100 348 L 98 353 L 98 357 L 97 358 L 97 362 L 96 363 L 96 368 L 95 369 L 94 385 L 93 386 L 93 396 L 92 397 L 92 441 L 93 442 L 95 468 L 96 469 L 96 474 L 97 475 L 97 480 L 100 489 L 100 493 L 104 505 L 104 508 L 106 512 L 106 515 L 110 524 L 112 532 L 118 545 L 118 547 L 132 575 L 151 605 L 174 634 L 202 662 L 233 686 L 236 687 L 249 696 L 254 698 L 259 702 L 290 717 L 292 717 L 300 721 L 303 721 L 314 726 L 317 726 L 324 729 L 327 729 L 339 733 L 343 733 L 347 735 L 358 736 L 364 738 L 371 738 L 372 739 L 379 739 L 380 740 L 391 740 L 392 741 L 434 741 L 435 740 L 447 740 L 448 739 L 455 739 L 456 738 L 462 738 L 463 737 L 478 735 L 479 734 L 498 730 L 505 727 L 508 727 L 520 723 L 523 721 L 528 720 L 538 715 L 540 715 L 573 698 L 606 676 L 617 666 L 622 663 L 637 649 L 654 631 L 657 626 L 672 608 L 692 577 L 699 562 L 701 560 L 701 558 L 707 547 L 707 545 L 714 530 L 720 512 L 722 502 L 724 498 L 724 495 L 727 486 L 727 482 L 728 481 L 730 463 L 731 462 L 731 454 L 732 453 L 732 446 L 733 445 L 733 423 L 734 422 L 734 415 L 733 414 L 733 394 L 732 393 L 732 385 L 731 384 L 729 363 L 728 362 L 728 358 L 724 344 L 723 336 L 711 299 L 697 268 L 695 266 L 684 245 L 669 223 L 640 189 L 621 171 L 597 152 L 576 138 L 548 123 L 546 123 L 539 119 L 537 119 L 532 116 L 522 113 L 519 111 L 507 107 L 504 107 L 500 105 L 497 105 L 493 103 L 485 102 L 476 99 L 460 97 L 459 96 L 443 95 L 442 94 L 429 94 L 428 93 Z M 412 577 L 414 578 L 415 586 L 416 587 L 416 592 L 417 593 L 419 608 L 420 609 L 420 613 L 421 614 L 421 618 L 422 619 L 422 623 L 424 629 L 424 634 L 425 635 L 425 639 L 426 640 L 426 644 L 428 650 L 428 655 L 430 660 L 430 664 L 431 665 L 431 669 L 433 675 L 433 680 L 434 681 L 434 685 L 435 686 L 435 690 L 436 691 L 436 695 L 437 696 L 437 700 L 438 701 L 438 705 L 440 711 L 439 714 L 434 714 L 433 715 L 392 715 L 385 713 L 387 706 L 387 702 L 388 701 L 388 697 L 390 692 L 390 686 L 391 685 L 391 681 L 392 680 L 392 676 L 393 675 L 393 671 L 394 670 L 394 666 L 395 665 L 395 661 L 396 660 L 396 656 L 398 650 L 398 645 L 399 644 L 401 630 L 403 625 L 405 609 L 406 608 L 406 604 L 407 603 L 407 599 L 409 593 L 409 588 L 410 587 L 410 583 Z M 482 558 L 485 560 L 567 667 L 567 670 L 553 679 L 524 693 L 521 693 L 519 690 L 519 687 L 516 680 L 516 677 L 513 670 L 513 667 L 511 663 L 511 660 L 509 656 L 505 639 L 499 622 L 499 619 L 497 615 L 496 608 L 491 594 L 487 577 L 481 560 Z M 343 558 L 344 559 L 343 564 L 341 567 L 341 570 L 338 577 L 336 588 L 329 609 L 329 612 L 326 619 L 326 622 L 324 626 L 324 629 L 322 633 L 318 650 L 315 657 L 313 667 L 310 674 L 306 691 L 304 693 L 302 693 L 276 681 L 274 679 L 259 671 L 258 668 L 299 613 L 311 599 L 329 574 L 334 569 L 340 560 Z M 429 489 L 432 491 L 434 495 L 466 536 L 470 543 L 471 549 L 474 556 L 475 563 L 482 584 L 485 598 L 488 605 L 490 615 L 494 625 L 497 639 L 499 643 L 499 646 L 502 653 L 502 656 L 508 674 L 508 677 L 510 680 L 510 683 L 514 694 L 514 696 L 509 699 L 506 699 L 493 704 L 490 704 L 486 706 L 482 706 L 478 708 L 474 708 L 469 710 L 453 712 L 452 713 L 447 713 L 446 712 L 445 702 L 444 701 L 443 692 L 441 686 L 441 681 L 440 680 L 440 676 L 439 675 L 439 671 L 438 670 L 438 666 L 437 665 L 437 661 L 436 660 L 436 656 L 435 655 L 435 651 L 434 650 L 434 646 L 433 645 L 433 641 L 432 640 L 432 636 L 431 635 L 431 631 L 429 625 L 429 620 L 427 615 L 425 599 L 424 598 L 424 594 L 423 593 L 423 589 L 421 583 L 421 578 L 420 577 L 420 573 L 418 567 L 418 562 L 416 556 L 418 543 L 420 538 L 422 523 L 423 522 L 423 518 L 424 517 L 427 495 Z M 396 489 L 398 494 L 398 499 L 400 505 L 400 510 L 402 516 L 402 521 L 404 527 L 404 532 L 405 533 L 409 557 L 408 558 L 407 568 L 404 578 L 404 583 L 403 584 L 401 599 L 400 600 L 400 604 L 398 610 L 398 615 L 397 616 L 397 620 L 396 621 L 396 625 L 395 626 L 395 630 L 394 631 L 394 635 L 393 636 L 393 640 L 392 641 L 392 645 L 391 646 L 391 650 L 389 656 L 388 666 L 386 671 L 386 676 L 384 682 L 384 687 L 383 688 L 379 712 L 378 713 L 373 713 L 372 712 L 361 711 L 360 710 L 356 710 L 355 709 L 332 704 L 312 697 L 311 695 L 316 681 L 316 678 L 318 674 L 322 657 L 325 650 L 325 647 L 328 640 L 331 626 L 333 623 L 336 609 L 344 585 L 344 581 L 347 574 L 347 571 L 349 567 L 349 564 L 351 560 L 355 543 L 358 537 L 365 529 L 376 513 L 381 508 L 393 491 Z M 550 489 L 552 488 L 556 490 L 559 490 L 569 494 L 572 494 L 602 504 L 612 506 L 628 512 L 638 514 L 664 523 L 683 528 L 684 529 L 684 533 L 672 558 L 661 576 L 659 577 L 605 534 L 600 529 L 596 527 L 581 514 L 566 503 L 561 498 L 553 493 Z M 275 489 L 273 492 L 244 514 L 238 520 L 224 530 L 219 535 L 184 562 L 166 577 L 164 576 L 163 573 L 156 563 L 153 556 L 151 554 L 149 548 L 143 537 L 143 535 L 141 532 L 141 529 L 142 528 L 151 526 L 155 524 L 158 524 L 168 520 L 171 520 L 187 514 L 197 512 L 210 507 L 213 507 L 227 502 L 230 502 L 266 490 L 269 490 L 273 488 Z M 403 481 L 407 481 L 408 482 L 422 481 L 423 482 L 423 486 L 422 487 L 422 491 L 421 492 L 421 496 L 419 502 L 419 507 L 417 512 L 416 523 L 415 524 L 415 528 L 413 534 L 411 533 L 409 517 L 407 512 L 407 507 L 406 506 L 404 491 L 402 485 L 402 482 Z M 446 471 L 448 471 L 450 474 L 454 491 L 462 515 L 461 517 L 460 517 L 454 510 L 432 480 L 433 478 L 439 476 Z M 378 470 L 381 473 L 392 478 L 393 480 L 387 489 L 376 502 L 374 506 L 370 510 L 367 515 L 365 516 L 364 513 L 366 509 L 367 502 L 373 485 L 376 471 Z M 459 460 L 474 465 L 477 465 L 484 468 L 487 468 L 500 473 L 503 473 L 506 475 L 519 478 L 529 482 L 656 583 L 646 598 L 630 617 L 606 641 L 577 664 L 574 665 L 567 657 L 556 641 L 536 616 L 534 612 L 526 603 L 520 594 L 512 585 L 474 535 L 470 518 L 466 508 L 461 487 L 459 484 L 459 481 L 454 466 Z M 366 460 L 371 465 L 371 467 L 350 537 L 341 547 L 333 559 L 266 645 L 255 661 L 250 665 L 226 647 L 194 616 L 180 599 L 170 585 L 170 583 L 215 546 L 229 536 L 264 507 L 298 481 Z M 470 439 L 473 438 L 482 446 L 506 464 L 507 466 L 506 467 L 503 467 L 499 465 L 496 465 L 480 459 L 477 459 L 465 455 L 464 452 L 469 443 Z M 355 439 L 356 443 L 361 452 L 360 455 L 356 457 L 339 461 L 322 467 L 319 467 L 318 466 L 320 463 L 338 450 L 352 438 Z M 481 435 L 482 434 L 493 433 L 498 431 L 502 431 L 503 430 L 507 430 L 513 428 L 518 428 L 524 426 L 529 426 L 530 425 L 534 425 L 540 423 L 551 423 L 552 424 L 556 424 L 557 425 L 561 425 L 562 426 L 566 426 L 567 427 L 571 427 L 577 429 L 582 429 L 583 430 L 597 432 L 602 434 L 625 438 L 634 441 L 639 441 L 644 443 L 653 444 L 654 445 L 671 448 L 676 450 L 680 450 L 681 451 L 685 451 L 686 452 L 703 455 L 704 456 L 704 463 L 703 464 L 703 469 L 702 470 L 700 484 L 699 485 L 696 500 L 689 521 L 688 522 L 683 522 L 664 515 L 661 515 L 638 507 L 635 507 L 625 503 L 622 503 L 616 500 L 599 496 L 586 491 L 576 489 L 560 483 L 553 482 L 543 478 L 540 478 L 531 475 L 496 447 L 483 438 Z M 344 435 L 342 438 L 333 444 L 294 475 L 272 482 L 269 482 L 262 485 L 259 485 L 253 488 L 236 492 L 226 496 L 223 496 L 213 500 L 210 500 L 197 505 L 187 507 L 174 512 L 161 515 L 141 522 L 138 522 L 135 518 L 135 515 L 130 503 L 130 500 L 125 483 L 123 469 L 122 468 L 121 457 L 123 455 L 131 454 L 135 452 L 140 452 L 150 449 L 154 449 L 155 448 L 172 445 L 177 443 L 181 443 L 186 441 L 200 439 L 205 437 L 219 435 L 224 433 L 238 431 L 243 429 L 248 429 L 258 426 L 263 426 L 268 424 L 278 423 L 279 422 L 296 425 L 297 426 L 312 428 L 313 429 L 318 429 L 319 430 L 323 430 L 328 432 L 333 432 L 334 433 L 338 433 Z M 473 429 L 473 410 L 474 409 L 489 411 L 490 412 L 495 412 L 501 414 L 506 414 L 507 415 L 522 417 L 523 418 L 522 420 L 519 421 L 515 421 L 514 422 L 505 423 L 500 425 L 495 425 L 494 426 L 480 428 L 475 430 Z M 352 429 L 350 430 L 341 427 L 336 427 L 335 426 L 321 424 L 316 422 L 306 421 L 304 418 L 309 416 L 314 416 L 315 415 L 319 415 L 325 413 L 330 413 L 336 411 L 351 409 L 352 410 Z M 706 446 L 704 449 L 702 449 L 689 445 L 666 441 L 665 440 L 648 437 L 643 435 L 639 435 L 638 434 L 629 433 L 624 431 L 610 429 L 605 427 L 596 426 L 591 424 L 577 422 L 576 421 L 569 420 L 568 418 L 569 417 L 574 417 L 579 415 L 584 415 L 585 414 L 595 413 L 601 411 L 606 411 L 607 410 L 611 410 L 617 408 L 622 408 L 623 407 L 627 407 L 628 406 L 632 406 L 638 404 L 643 404 L 644 403 L 648 403 L 649 402 L 653 402 L 654 401 L 658 401 L 659 400 L 663 400 L 664 399 L 668 399 L 674 397 L 679 397 L 680 396 L 684 396 L 685 395 L 689 395 L 690 394 L 694 394 L 700 392 L 705 392 L 706 393 L 706 405 L 707 406 L 707 435 L 706 436 Z M 119 445 L 118 407 L 119 406 L 119 393 L 120 392 L 125 392 L 126 393 L 130 393 L 136 395 L 141 395 L 146 397 L 157 398 L 162 400 L 167 400 L 172 402 L 182 403 L 183 404 L 187 404 L 188 405 L 192 405 L 193 406 L 197 406 L 203 408 L 208 408 L 214 410 L 230 412 L 235 414 L 241 414 L 242 415 L 251 416 L 256 418 L 256 419 L 253 421 L 249 421 L 248 422 L 235 424 L 230 426 L 226 426 L 225 427 L 201 431 L 196 433 L 187 434 L 182 436 L 173 437 L 164 440 L 160 440 L 159 441 L 155 441 L 141 445 L 132 446 L 123 449 L 121 449 Z M 408 388 L 418 388 L 430 393 L 439 403 L 443 413 L 443 426 L 438 438 L 430 446 L 418 451 L 407 451 L 395 446 L 386 436 L 382 426 L 382 414 L 386 403 L 394 394 L 401 390 Z M 318 372 L 319 371 L 325 372 L 344 379 L 347 379 L 354 382 L 360 383 L 362 386 L 360 388 L 355 400 L 353 401 L 345 394 L 320 375 Z M 509 371 L 508 373 L 504 375 L 472 401 L 470 400 L 469 396 L 463 386 L 465 383 L 474 381 L 484 377 L 487 377 L 494 374 L 497 374 L 507 370 Z M 365 323 L 367 324 L 369 328 L 393 359 L 392 362 L 384 365 L 379 369 L 376 367 L 375 361 L 372 354 L 372 351 L 370 348 L 370 345 L 364 327 L 364 324 Z M 461 322 L 462 324 L 453 351 L 449 368 L 447 369 L 443 366 L 434 362 L 432 359 L 459 323 Z M 691 322 L 694 331 L 694 334 L 696 338 L 696 341 L 701 358 L 701 362 L 702 363 L 702 368 L 704 375 L 704 382 L 705 384 L 702 386 L 696 386 L 695 387 L 686 388 L 685 389 L 672 391 L 671 392 L 649 395 L 648 396 L 644 396 L 643 397 L 639 397 L 638 398 L 634 398 L 628 400 L 623 400 L 622 401 L 607 403 L 606 404 L 597 405 L 592 407 L 576 409 L 575 410 L 565 411 L 564 412 L 549 414 L 548 415 L 536 414 L 535 413 L 520 411 L 514 409 L 509 409 L 503 407 L 498 407 L 497 406 L 493 406 L 492 405 L 488 405 L 482 403 L 486 398 L 495 392 L 505 383 L 530 364 L 534 362 L 547 359 L 560 354 L 570 352 L 580 348 L 590 346 L 617 337 L 624 336 L 634 332 L 637 332 L 641 330 L 658 326 L 665 323 L 676 321 L 686 317 L 688 317 Z M 134 322 L 136 318 L 139 317 L 146 320 L 164 324 L 174 328 L 181 329 L 188 332 L 198 334 L 205 337 L 215 339 L 225 343 L 239 346 L 255 352 L 262 353 L 275 358 L 278 358 L 285 361 L 291 362 L 301 368 L 329 391 L 343 401 L 344 403 L 339 405 L 334 405 L 333 406 L 323 407 L 317 409 L 305 410 L 304 411 L 289 413 L 283 415 L 277 415 L 276 414 L 271 414 L 270 413 L 265 413 L 264 412 L 260 412 L 254 410 L 238 408 L 237 407 L 233 407 L 232 406 L 219 404 L 218 403 L 213 403 L 212 402 L 208 402 L 202 400 L 186 398 L 176 395 L 171 395 L 165 393 L 149 391 L 144 389 L 140 389 L 139 388 L 122 385 L 121 384 L 121 377 L 122 376 L 122 370 L 123 369 L 123 365 L 125 359 L 125 354 Z M 412 307 L 414 308 L 414 311 L 415 312 L 417 328 L 418 329 L 420 344 L 421 345 L 421 349 L 423 355 L 423 358 L 422 359 L 419 358 L 405 358 L 403 359 L 402 358 L 405 341 L 406 340 L 406 334 L 407 333 L 407 329 L 409 323 L 409 318 L 410 317 L 411 308 Z M 663 262 L 672 277 L 674 283 L 681 296 L 681 298 L 686 308 L 685 311 L 672 314 L 668 316 L 665 316 L 661 318 L 658 318 L 651 321 L 634 325 L 624 329 L 617 330 L 589 339 L 586 339 L 573 344 L 559 347 L 556 349 L 553 349 L 552 350 L 550 349 L 551 347 L 574 330 L 661 261 Z M 162 262 L 164 261 L 255 333 L 260 336 L 265 341 L 274 347 L 275 349 L 274 350 L 269 349 L 266 347 L 252 344 L 242 340 L 239 340 L 212 331 L 209 331 L 195 326 L 192 326 L 174 320 L 167 319 L 157 315 L 140 311 L 139 309 L 144 298 L 144 296 Z M 577 171 L 601 189 L 627 214 L 653 246 L 654 249 L 657 252 L 657 255 L 638 271 L 611 291 L 597 303 L 583 313 L 529 356 L 490 369 L 487 369 L 468 376 L 465 376 L 461 378 L 456 377 L 454 375 L 455 369 L 457 365 L 459 355 L 462 348 L 464 338 L 467 331 L 467 328 L 470 321 L 470 318 L 475 303 L 516 249 L 520 245 L 551 203 L 562 190 L 574 173 Z M 246 172 L 249 171 L 252 174 L 282 215 L 304 242 L 309 250 L 313 254 L 350 303 L 354 315 L 354 318 L 357 325 L 357 328 L 360 335 L 360 338 L 363 345 L 363 348 L 367 358 L 369 368 L 371 372 L 371 375 L 367 379 L 296 356 L 209 287 L 177 263 L 168 255 L 169 251 L 175 242 L 199 213 L 222 191 Z M 525 142 L 559 159 L 564 163 L 567 164 L 569 166 L 569 169 L 537 210 L 525 227 L 514 240 L 502 257 L 498 261 L 493 269 L 489 273 L 486 278 L 483 280 L 482 278 L 487 264 L 489 253 L 493 243 L 493 240 L 495 236 L 499 219 L 502 212 L 504 202 L 507 195 L 507 192 L 510 185 L 513 171 L 517 161 L 521 144 L 523 142 Z M 300 142 L 302 142 L 305 147 L 306 154 L 312 171 L 316 188 L 319 195 L 322 209 L 325 216 L 325 219 L 328 226 L 330 236 L 338 260 L 338 264 L 342 274 L 342 277 L 343 278 L 342 280 L 339 278 L 337 274 L 307 236 L 256 168 L 257 165 L 268 158 Z M 451 122 L 452 123 L 457 123 L 458 124 L 463 124 L 464 125 L 469 125 L 474 127 L 478 127 L 479 128 L 490 130 L 497 133 L 500 133 L 509 137 L 514 138 L 515 139 L 515 142 L 511 154 L 511 157 L 509 161 L 509 164 L 505 174 L 503 184 L 499 194 L 498 201 L 490 225 L 489 232 L 483 249 L 483 252 L 481 256 L 481 259 L 479 263 L 479 266 L 477 270 L 477 273 L 474 280 L 473 287 L 469 299 L 433 347 L 429 350 L 427 345 L 427 340 L 425 335 L 425 329 L 424 328 L 424 324 L 423 323 L 423 319 L 422 318 L 422 314 L 421 313 L 420 303 L 418 298 L 416 285 L 417 284 L 417 279 L 418 278 L 418 274 L 419 273 L 419 269 L 420 268 L 420 264 L 421 263 L 421 259 L 422 258 L 422 254 L 423 253 L 423 249 L 425 243 L 425 238 L 427 233 L 427 228 L 428 227 L 431 209 L 432 208 L 433 198 L 434 197 L 437 179 L 438 178 L 438 173 L 439 172 L 439 168 L 440 167 L 440 163 L 441 162 L 441 158 L 442 157 L 442 153 L 443 152 L 443 148 L 444 147 L 444 143 L 445 142 L 445 138 L 447 132 L 447 127 L 448 126 L 448 123 Z M 375 122 L 377 123 L 377 126 L 378 127 L 378 131 L 379 132 L 379 136 L 380 137 L 380 141 L 381 142 L 381 146 L 382 147 L 382 151 L 384 157 L 384 162 L 385 163 L 385 167 L 386 168 L 386 172 L 387 173 L 387 177 L 388 178 L 388 182 L 389 183 L 389 187 L 391 193 L 391 198 L 393 203 L 394 213 L 395 214 L 397 227 L 399 232 L 401 248 L 402 249 L 402 253 L 403 254 L 403 258 L 404 259 L 404 263 L 405 264 L 405 268 L 406 269 L 406 273 L 407 274 L 407 278 L 409 284 L 406 302 L 405 303 L 405 308 L 404 309 L 403 318 L 401 324 L 401 329 L 399 335 L 398 346 L 396 350 L 392 347 L 371 318 L 360 305 L 355 297 L 351 280 L 348 273 L 344 256 L 341 249 L 339 239 L 334 225 L 333 218 L 329 208 L 326 194 L 322 184 L 318 167 L 310 143 L 310 139 L 311 138 L 319 136 L 325 133 L 328 133 L 335 130 L 338 130 L 351 126 L 367 124 L 368 123 L 374 123 Z M 385 121 L 392 121 L 393 120 L 432 120 L 433 121 L 440 121 L 441 122 L 441 127 L 437 141 L 436 152 L 434 157 L 433 167 L 432 168 L 432 172 L 431 173 L 431 177 L 430 178 L 430 182 L 429 183 L 429 187 L 428 188 L 428 192 L 427 193 L 427 197 L 426 198 L 426 202 L 425 203 L 425 207 L 424 208 L 424 212 L 423 213 L 423 217 L 421 223 L 421 228 L 420 229 L 420 233 L 419 234 L 419 238 L 417 243 L 417 248 L 416 249 L 416 253 L 415 254 L 415 258 L 413 264 L 411 263 L 411 259 L 410 258 L 410 254 L 409 253 L 409 249 L 408 248 L 408 244 L 407 243 L 407 239 L 406 238 L 406 234 L 404 228 L 404 223 L 402 218 L 401 208 L 398 198 L 398 193 L 397 192 L 397 188 L 396 187 L 396 183 L 395 182 L 395 178 L 394 177 L 394 173 L 393 172 L 393 168 L 392 167 L 392 163 L 391 162 L 391 158 L 389 152 L 389 147 L 388 146 L 387 137 L 385 132 L 385 127 L 384 126 L 384 122 Z" fill="#f9fffd" fill-rule="evenodd"/>
  </g>
</svg>
